<svg width="20" height="22" viewBox="0 0 20 22" xmlns="http://www.w3.org/2000/svg">
<g clip-path="url(#clip0_1903_7)">
<g clip-path="url(#clip1_1903_7)">
<path d="M20.2517 9.82553L10.9947 19.0834L1.73766 9.82553C1.56496 9.65871 1.28971 9.66352 1.12289 9.83621C0.960177 10.0047 0.960177 10.2718 1.12289 10.4403L10.6877 20.0051C10.8575 20.1748 11.1327 20.1748 11.3025 20.0051L20.8673 10.4403C21.0341 10.2676 21.0293 9.99232 20.8566 9.82549C20.6881 9.66274 20.421 9.66274 20.2525 9.82549L20.2517 9.82553Z" fill="#607D8B"/>
<path d="M20.2517 1.99978L10.9947 11.2576L1.73766 1.99978C1.56496 1.83295 1.28971 1.83776 1.12289 2.01046C0.960177 2.17895 0.960177 2.44605 1.12289 2.61455L10.6877 12.1794C10.8575 12.3491 11.1327 12.3491 11.3025 12.1794L20.8673 2.61455C21.04 2.44772 21.0448 2.17251 20.878 1.99978C20.7111 1.82708 20.4359 1.82231 20.2632 1.9891C20.2596 1.9926 20.256 1.99615 20.2525 1.99978H20.2517Z" fill="#607D8B"/>
<path d="M10.9947 20.1329C10.8793 20.1332 10.7685 20.0875 10.6868 20.006L1.12203 10.4412C0.955206 10.2685 0.960015 9.99322 1.13271 9.8264C1.30121 9.66368 1.5683 9.66368 1.73676 9.8264L10.9946 19.0834L20.2516 9.82554C20.4243 9.65871 20.6996 9.66352 20.8664 9.83622C21.0291 10.0047 21.0291 10.2718 20.8664 10.4403L11.3016 20.0051C11.2203 20.0867 11.1099 20.1327 10.9947 20.1329Z" fill="black"/>
<path d="M10.9947 12.3072C10.8793 12.3074 10.7685 12.2617 10.6869 12.1802L1.12203 2.6154C0.955206 2.44271 0.960015 2.16746 1.13271 2.00063C1.30121 1.83792 1.5683 1.83792 1.7368 2.00063L10.9947 11.2576L20.2517 1.99978C20.4185 1.82708 20.6937 1.82231 20.8664 1.9891C21.0392 2.15588 21.0439 2.43113 20.8771 2.60387C20.8736 2.60749 20.8701 2.61104 20.8664 2.61455L11.3016 12.1794C11.2203 12.2609 11.1099 12.3069 10.9947 12.3072Z" fill="black"/>
</g>
</g>
<defs>
<clipPath id="clip0_1903_7">
<rect width="20" height="22" fill="white"/>
</clipPath>
<clipPath id="clip1_1903_7">
<rect width="20" height="20" fill="white" transform="translate(1 1)"/>
</clipPath>
</defs>
</svg>
